<?xml version="1.0" encoding="UTF-8"?>
<svg version="1.1" xmlns="http://www.w3.org/2000/svg" width="1701" height="1701">
<path d="M0 0 C561.33 0 1122.66 0 1701 0 C1701 561.33 1701 1122.66 1701 1701 C1139.67 1701 578.34 1701 0 1701 C0 1139.67 0 578.34 0 0 Z " fill="#FEFEFE" transform="translate(0,0)"/>
<path d="M0 0 C1.18559509 -0.0049926 1.18559509 -0.0049926 2.3951416 -0.01008606 C4.05899481 -0.01511284 5.72285795 -0.01749571 7.38671875 -0.01733398 C9.87257507 -0.01950188 12.35797293 -0.03765205 14.84375 -0.05664062 C37.85079747 -0.13895309 61.49842486 3.05503851 83.40625 10.16796875 C84.9633439 10.64257641 86.52065194 11.11648185 88.078125 11.58984375 C119.39509956 21.33356751 148.30371079 37.08652058 173.40625 58.16796875 C173.92751465 58.60044922 174.4487793 59.03292969 174.98583984 59.47851562 C186.3908982 68.95618738 197.04175858 78.83333263 206.2734375 90.48046875 C207.66508889 92.23405145 209.08608912 93.96484977 210.5390625 95.66796875 C238.02073217 127.97616822 254.52613571 168.10661382 263.40625 209.16796875 C263.58317383 209.94446777 263.76009766 210.7209668 263.94238281 211.52099609 C267.05018286 225.82592817 267.75608236 240.14442516 267.65625 254.73046875 C267.65281586 255.55735199 267.64938171 256.38423523 267.64584351 257.23617554 C267.51425911 284.39055824 265.22895285 311.25716614 256.14697266 337.05957031 C255.61593813 338.57111091 255.09605522 340.08658712 254.58349609 341.60449219 C246.89898299 364.35676125 236.624681 385.39178294 223.27734375 405.3515625 C221.42659327 408.06180981 221.42659327 408.06180981 220.046875 410.5859375 C217.75580248 414.19164925 214.98069576 417.28438539 212.15625 420.48046875 C211.33447266 421.41922852 211.33447266 421.41922852 210.49609375 422.37695312 C209.40292989 423.6250032 208.30737004 424.8709596 207.20916748 426.11457825 C206.08615651 427.39360521 204.96979795 428.67854304 203.86383057 429.97233582 C199.2247838 435.37582637 194.27839586 440.40972279 189.21875 445.41796875 C188.35741455 446.27551758 187.4960791 447.13306641 186.60864258 448.01660156 C182.95611017 451.65291814 179.29761365 455.28321246 175.63964844 458.9140625 C172.95559844 461.57994472 170.27461759 464.24888685 167.59375 466.91796875 C166.77688721 467.7265332 165.96002441 468.53509766 165.1184082 469.36816406 C160.87045281 473.59807676 156.78494843 477.8991703 152.89221191 482.45935059 C150.68489627 484.99740999 148.31302043 487.31782822 145.90625 489.66796875 C142.80910598 492.7189572 139.78673866 495.79140384 136.96875 499.10546875 C133.95272173 502.64475975 130.71177099 505.9029132 127.40625 509.16796875 C124.12157009 512.41248751 120.89890996 515.64719233 117.90625 519.16796875 C114.4308145 523.2567164 110.62524763 526.97613559 106.81079102 530.74389648 C103.45564106 534.07379205 100.30899548 537.50728274 97.24609375 541.109375 C94.44789208 544.24027156 91.43851344 547.1562657 88.45068359 550.10400391 C85.84504261 552.68819193 83.34571891 555.31006033 80.96875 558.10546875 C77.46914503 562.2122341 73.64642991 565.95521681 69.81103516 569.74365234 C66.45580443 573.07363204 63.30907125 576.50719364 60.24609375 580.109375 C57.44789208 583.24027156 54.43851344 586.1562657 51.45068359 589.10400391 C48.84504261 591.68819193 46.34571891 594.31006033 43.96875 597.10546875 C40.95272173 600.64475975 37.71177099 603.9029132 34.40625 607.16796875 C31.12157009 610.41248751 27.89890996 613.64719233 24.90625 617.16796875 C21.4308145 621.2567164 17.62524763 624.97613559 13.81079102 628.74389648 C10.45564106 632.07379205 7.30899548 635.50728274 4.24609375 639.109375 C1.44789208 642.24027156 -1.56148656 645.1562657 -4.54931641 648.10400391 C-7.15495739 650.68819193 -9.65428109 653.31006033 -12.03125 656.10546875 C-15.53085497 660.2122341 -19.35357009 663.95521681 -23.18896484 667.74365234 C-26.54419557 671.07363204 -29.69092875 674.50719364 -32.75390625 678.109375 C-35.55210792 681.24027156 -38.56148656 684.1562657 -41.54931641 687.10400391 C-44.15495739 689.68819193 -46.65428109 692.31006033 -49.03125 695.10546875 C-52.53085497 699.2122341 -56.35357009 702.95521681 -60.18896484 706.74365234 C-63.54419557 710.07363204 -66.69092875 713.50719364 -69.75390625 717.109375 C-72.55210792 720.24027156 -75.56148656 723.1562657 -78.54931641 726.10400391 C-81.15495739 728.68819193 -83.65428109 731.31006033 -86.03125 734.10546875 C-89.04727827 737.64475975 -92.28822901 740.9029132 -95.59375 744.16796875 C-98.87842991 747.41248751 -102.10109004 750.64719233 -105.09375 754.16796875 C-108.56472973 758.25147431 -112.36355605 761.96840082 -116.17602539 765.72851562 C-119.63562203 769.1580763 -122.89949327 772.68375257 -125.99609375 776.44921875 C-128.00754604 778.6131283 -130.27662237 780.34085316 -132.59375 782.16796875 C-146.16621789 768.61889951 -159.73579277 755.06693932 -173.30196476 741.51156616 C-179.6015591 735.21712 -185.90208343 728.92361013 -192.20483398 722.63232422 C-197.70066729 717.14648299 -203.19471861 711.65886432 -208.68667024 706.169137 C-211.59251506 703.26459162 -214.49922218 700.36092158 -217.4080677 697.4593811 C-220.15084867 694.72343183 -222.89122504 691.98509624 -225.62984467 689.24498177 C-226.63064836 688.24445121 -227.63229703 687.24476496 -228.63489342 686.24603081 C-237.14000775 677.77205176 -237.14000775 677.77205176 -240.92857361 673.33215332 C-246.16739703 667.23519028 -251.97726368 661.66243227 -257.66992188 655.99414062 C-258.98985245 654.67613203 -260.30955345 653.3578935 -261.62904358 652.03944397 C-264.45837972 649.21325555 -267.28925867 646.38862509 -270.12135315 643.56520081 C-274.60446271 639.09567482 -279.08370093 634.62228243 -283.56237793 630.14831543 C-293.06987187 620.65189644 -302.58158912 611.15971271 -312.09375 601.66796875 C-322.36474371 591.41902073 -332.63500054 581.16934079 -342.90037394 570.91476297 C-347.34774767 566.47235544 -351.79754445 562.03239398 -356.24924469 557.5943222 C-359.02303053 554.82802363 -361.79471792 552.05962972 -364.56585503 549.29067802 C-365.84562685 548.01276971 -367.12625855 546.73572182 -368.40783882 545.45962715 C-374.14105117 539.75017282 -379.83669999 534.05946466 -385.09108925 527.89843178 C-387.63838378 524.96496925 -390.38549504 522.23689784 -393.13647461 519.49584961 C-393.74887497 518.88169693 -394.36127533 518.26754425 -394.99223328 517.63478088 C-396.99103506 515.63162476 -398.9934169 513.63209391 -400.99609375 511.6328125 C-402.40196566 510.22626571 -403.8076892 508.8195706 -405.21327209 507.41273499 C-408.14926768 504.47527111 -411.08704869 501.53960793 -414.02612305 498.60522461 C-417.77609623 494.86094815 -421.52156131 491.11219941 -425.26569271 487.36208248 C-428.16451172 484.45963435 -431.06572755 481.5595914 -433.96765327 478.66024971 C-435.34895595 477.2796098 -436.72952815 475.89823863 -438.10932732 474.51609612 C-447.32745129 465.22671374 -447.32745129 465.22671374 -457.05300903 456.47822571 C-465.49376011 449.30015161 -472.80717269 440.88568594 -479.59375 432.16796875 C-480.61316 430.88922625 -481.63269997 429.61058735 -482.65234375 428.33203125 C-490.48412847 418.41169287 -497.34113438 408.14880196 -503.59375 397.16796875 C-504.0175293 396.42885254 -504.44130859 395.68973633 -504.87792969 394.92822266 C-519.91878334 368.40152112 -529.74978621 339.22227177 -534.59375 309.16796875 C-534.70557617 308.48879395 -534.81740234 307.80961914 -534.93261719 307.10986328 C-543.50736425 254.29537233 -534.70694579 197.35954751 -509.58496094 150.04443359 C-508.5917005 148.16408883 -507.62580313 146.27163064 -506.6640625 144.375 C-501.9533509 135.18055609 -496.55619197 126.59976977 -490.59375 118.16796875 C-490.13484375 117.51683105 -489.6759375 116.86569336 -489.203125 116.19482422 C-481.7694975 105.74128555 -473.55259515 96.33333736 -464.59375 87.16796875 C-463.96500977 86.51876465 -463.33626953 85.86956055 -462.68847656 85.20068359 C-455.05387013 77.33244353 -447.36430705 69.78238374 -438.59375 63.16796875 C-437.95099121 62.68118652 -437.30823242 62.1944043 -436.64599609 61.69287109 C-421.8410139 50.54594902 -406.36565045 41.09047029 -389.62841797 33.13574219 C-388.26998673 32.48961531 -386.91481862 31.83658363 -385.56298828 31.17675781 C-365.98881968 21.66121462 -345.01354371 15.76689122 -323.59375 12.16796875 C-322.37300781 11.95527344 -321.15226563 11.74257813 -319.89453125 11.5234375 C-306.84154847 9.37626045 -293.85490208 8.9307951 -280.65625 8.91796875 C-279.83871246 8.91662933 -279.02117493 8.91528992 -278.17886353 8.91390991 C-266.16633997 8.9181692 -254.52904025 9.45784393 -242.70654297 11.76220703 C-240.69891094 12.1477726 -238.67946054 12.47022498 -236.66015625 12.7890625 C-206.32808897 17.78748915 -170.03764716 28.79888955 -145.6953125 48.1796875 C-142.83220903 50.50590957 -142.83220903 50.50590957 -140.015625 49.73046875 C-137.23673463 47.93763625 -134.52148761 46.11036909 -131.84375 44.16796875 C-94.33543428 17.67339954 -46.25564137 0.07037573 0 0 Z " fill="#FF0000" transform="translate(1287.59375,50.83203125)"/>
<path d="M0 0 C136.95 0 273.9 0 415 0 C415 54.45 415 108.9 415 165 C389.26 165 363.52 165 337 165 C337 312.84 337 460.68 337 613 C363.07 613 389.14 613 416 613 C416 667.78 416 722.56 416 779 C278.72 779 141.44 779 0 779 C0 724.22 0 669.44 0 613 C25.74 613 51.48 613 78 613 C78 465.16 78 317.32 78 165 C52.26 165 26.52 165 0 165 C0 110.55 0 56.1 0 0 Z " fill="#000000" transform="translate(198,56)"/>
<path d="M0 0 C2.72502169 -0.00491488 5.45003351 -0.01274539 8.17504883 -0.02035522 C14.77228096 -0.03685238 21.36947732 -0.0424594 27.96672837 -0.04357998 C33.33049153 -0.04453481 38.69424301 -0.04866658 44.05800247 -0.05498123 C59.29665429 -0.07255424 74.53527811 -0.08182501 89.77394013 -0.08032028 C90.59265122 -0.08024037 91.4113623 -0.08016046 92.25488281 -0.08007812 C93.48446248 -0.07995548 93.48446248 -0.07995548 94.73888214 -0.07983036 C108.04573575 -0.07901612 121.35247655 -0.09819876 134.65929751 -0.12635486 C148.35335064 -0.15510012 162.04734873 -0.1688946 175.74143279 -0.16716731 C183.41768084 -0.16650451 191.09381022 -0.1719499 198.77003098 -0.19352341 C205.29845779 -0.21175573 211.82671196 -0.2160649 218.35515325 -0.20250456 C221.68218724 -0.19598817 225.00862065 -0.19799581 228.33566666 -0.21321106 C231.94871222 -0.22866304 235.56089254 -0.21935468 239.17391968 -0.20394897 C240.21556097 -0.2142361 241.25720227 -0.22452323 242.33040845 -0.23512208 C250.40179431 -0.15924796 256.86197379 1.79351379 263.69775391 6.10302734 C271.17614047 13.80136645 272.12053156 22.7153909 272.09741211 33.02807617 C272.10507851 34.79260887 272.10507851 34.79260887 272.11289978 36.5927887 C272.12439358 39.80785963 272.12687311 43.02277014 272.12433648 46.23785615 C272.12326347 48.9289289 272.12815873 51.61997813 272.1329419 54.31104583 C272.144023 60.66498284 272.1444829 67.01886074 272.13842773 73.37280273 C272.13239346 79.90980542 272.14468812 86.44659256 272.1659978 92.98355848 C272.18366239 98.61096365 272.18960739 104.23830052 272.18636006 109.86573237 C272.18455418 113.22006347 272.18844191 116.57411871 272.2010746 119.92844582 C272.21344839 123.67406295 272.20664066 127.41918536 272.19506836 131.16479492 C272.2027121 132.26380127 272.21035583 133.36280762 272.2182312 134.49511719 C272.14841806 144.74892802 269.94499763 152.85784461 262.76025391 160.47802734 C252.41322198 166.86236619 239.94573653 165.72041684 228.25585938 165.69116211 C226.18019212 165.69691153 224.1045282 165.70399712 222.02886963 165.71231079 C217.57697323 165.72737031 213.12519635 165.73320279 208.67327499 165.73178291 C201.62961972 165.72974218 194.58612423 165.74936254 187.54251099 165.7719574 C173.86472709 165.81285796 160.186956 165.83152158 146.50912476 165.84812927 C129.09177163 165.87051267 111.67445565 165.90406953 94.25716317 165.9553284 C87.25906572 165.97521614 80.26105237 165.98482774 73.26292777 165.98628056 C68.9074639 165.98903569 64.55204631 165.99987598 60.19660187 166.01279068 C58.18145554 166.01706085 56.16629863 166.0179368 54.15114975 166.01511574 C51.39378151 166.01169915 48.63670367 166.02053355 45.87936401 166.03224182 C45.08820186 166.02826073 44.29703972 166.02427963 43.48190296 166.0201779 C35.40162104 166.08070757 28.26146143 166.94649937 22.26025391 172.64208984 C15.95664494 179.87068491 16.09491544 189.27310129 16.60058594 198.33740234 C17.41217547 205.47225537 21.56331733 210.74041842 26.97900391 215.13427734 C32.06956179 218.3266611 37.27151863 218.90224573 43.11572266 219.58740234 C44.03734192 219.7013887 44.95896118 219.81537506 45.9085083 219.93281555 C47.89967577 220.17876097 49.89119802 220.42184746 51.88302612 220.66238403 C57.224223 221.30823973 62.56256236 221.97680847 67.90087891 222.64599609 C68.98932602 222.78214828 70.07777313 222.91830048 71.19920349 223.05857849 C81.57143124 224.36577169 91.91639656 225.83983761 102.26025391 227.35302734 C115.29980148 229.25828031 128.34657433 231.01292769 141.42852783 232.60180664 C182.39659009 237.58007658 182.39659009 237.58007658 200.82275391 243.29052734 C201.71607422 243.56380859 202.60939453 243.83708984 203.52978516 244.11865234 C216.57735723 248.1543365 228.87774031 252.65141607 240.82275391 259.29052734 C241.87333984 259.85384766 242.92392578 260.41716797 244.00634766 260.99755859 C254.7210789 266.94709077 264.43653633 274.3452286 272.82275391 283.29052734 C274.06025391 284.43521484 274.06025391 284.43521484 275.32275391 285.60302734 C300.6846447 312.86705994 303.1505422 351.9729299 303.12433648 387.17663145 C303.12325314 390.06618305 303.12818433 392.95571332 303.1329419 395.84526026 C303.14396774 402.67436351 303.14451368 409.50341173 303.13842773 416.33251953 C303.13239195 423.32397607 303.14470492 430.31523117 303.1659978 437.30665338 C303.18373978 443.35987398 303.18959558 449.41303119 303.18636006 455.46627676 C303.1845672 459.05936473 303.18697938 462.65230892 303.2010746 466.24537277 C303.27004613 485.45850706 302.46170416 503.41076656 296.63525391 521.85302734 C296.33482178 522.81700439 296.03438965 523.78098145 295.72485352 524.77416992 C284.31780655 560.18678523 259.62195922 586.15083452 226.92285156 603.24267578 C220.72344164 606.3358945 214.29900392 608.84627036 207.82275391 611.29052734 C206.14632812 611.94988281 206.14632812 611.94988281 204.43603516 612.62255859 C195.99408787 615.71107589 187.3545854 617.61650093 178.57275391 619.47802734 C176.82526855 619.85326538 176.82526855 619.85326538 175.04248047 620.23608398 C155.78653652 624.15697155 136.74364528 624.59161774 117.14757168 624.56663573 C113.46327897 624.5641362 109.77901011 624.5732215 106.09472656 624.58067322 C98.90634159 624.59332907 91.71799413 624.59522581 84.5295999 624.59287295 C78.68583687 624.59108113 72.84208512 624.59285779 66.99832344 624.5970974 C65.74511406 624.59799018 65.74511406 624.59799018 64.46658732 624.598901 C62.76882278 624.60011287 61.07105824 624.601327 59.37329371 624.60254338 C43.50810047 624.61338148 27.64292858 624.61127282 11.77773417 624.60515853 C-2.7219811 624.59997964 -17.2216294 624.61127705 -31.72133143 624.63025675 C-46.64493133 624.64964049 -61.56849953 624.65789104 -76.4921121 624.6541335 C-84.85687085 624.65222395 -93.22157244 624.65468608 -101.58632088 624.66884804 C-108.69838758 624.68076883 -115.81036182 624.68215804 -122.92242981 624.67005787 C-126.54706279 624.66417719 -130.17152667 624.66304765 -133.7961483 624.67506027 C-137.73068311 624.68794853 -141.66496282 624.6774372 -145.59950256 624.66474915 C-146.73637121 624.67212343 -147.87323985 624.67949772 -149.04455906 624.68709546 C-157.8477843 624.62745169 -166.51037282 623.45316931 -173.64208984 617.87255859 C-181.41692358 609.86032536 -181.32822876 600.24961491 -181.35424805 589.75244141 C-181.36410484 588.01957886 -181.36410484 588.01957886 -181.37416077 586.25170898 C-181.39383809 582.43652272 -181.40554315 578.6213757 -181.41552734 574.80615234 C-181.41960287 573.50022881 -181.4236784 572.19430527 -181.42787743 570.84880829 C-181.44690309 564.64981545 -181.46114026 558.45083432 -181.4694894 552.25181794 C-181.47925587 545.1204141 -181.50557068 537.98932112 -181.54599029 530.85802674 C-181.57624172 525.32913026 -181.59096672 519.80032247 -181.59427041 514.2713449 C-181.59661034 510.9767193 -181.60743696 507.6825009 -181.63073158 504.38794708 C-181.65514292 500.70711155 -181.65415387 497.02708352 -181.6472168 493.34619141 C-181.66002686 492.26948181 -181.67283691 491.19277222 -181.68603516 490.08343506 C-181.62982767 481.86923404 -179.75205924 475.37471372 -175.36474609 468.41552734 C-167.80025433 461.06716391 -159.03820117 459.98899768 -148.97425842 460.03897095 C-147.96120099 460.03600081 -146.94814356 460.03303067 -145.90438741 460.02997053 C-142.51749919 460.02234577 -139.13078516 460.02881836 -135.74389648 460.03515625 C-133.31252424 460.03240568 -130.88115289 460.02872537 -128.44978333 460.02418518 C-123.21753645 460.01607796 -117.98532003 460.01374057 -112.75306892 460.01613235 C-105.17946319 460.01923482 -97.60593195 460.00757433 -90.03234499 459.99158256 C-77.73210059 459.9656396 -65.43185614 459.94561079 -53.1315918 459.93212891 C-52.39597633 459.93131854 -51.66036086 459.93050817 -50.90245401 459.92967324 C-40.46213281 459.9184506 -30.02181693 459.91317004 -19.58149051 459.91028611 C-18.47852209 459.90998013 -18.47852209 459.90998013 -17.35327148 459.90966797 C-16.61885887 459.90946803 -15.88444626 459.9092681 -15.12777872 459.9090621 C-2.87362351 459.90532699 9.38045075 459.88622818 21.63456541 459.85457361 C29.18729581 459.83567885 36.73981846 459.82968518 44.29256595 459.84039079 C50.08125065 459.84746627 55.86974446 459.83391533 61.65838814 459.81277275 C64.03032528 459.80744801 66.40228912 459.80895232 68.7742157 459.81780815 C72.01408559 459.82892852 75.25297267 459.8154976 78.49278259 459.79605103 C79.898099 459.80973801 79.898099 459.80973801 81.33180565 459.8237015 C87.90720098 459.74698781 93.40712705 458.4515374 98.34832042 453.87868369 C103.97624207 447.51581033 104.18701962 441.56631218 104.19775391 433.47802734 C104.22224609 432.51832031 104.24673828 431.55861328 104.27197266 430.56982422 C104.30033899 423.64371161 103.24408405 417.9779938 98.41040039 412.76831055 C93.16259861 408.11358513 87.65099788 406.92678179 80.89306641 405.92333984 C80.11834991 405.8037944 79.34363342 405.68424896 78.54544067 405.56108093 C76.01381887 405.17273913 73.48090192 404.79377551 70.94775391 404.41552734 C69.18699347 404.14831361 67.42625145 403.88097843 65.66552734 403.61352539 C53.53641006 401.78446881 41.39069946 400.14283642 29.21948242 398.62133789 C21.66590528 397.67421059 14.15349213 396.59889586 6.64331055 395.35742188 C0.78186329 394.40324768 -5.093027 393.67700478 -10.98974609 392.97802734 C-48.2126235 388.47486166 -85.83572256 383.48354296 -119.17724609 365.29052734 C-120.23298828 364.72591797 -121.28873047 364.16130859 -122.37646484 363.57958984 C-147.00463673 349.86507844 -165.58993338 329.08456317 -174.23974609 301.95849609 C-178.81726416 284.96446026 -181.32995602 267.90069179 -181.32250977 250.28930664 C-181.32586838 249.13164291 -181.32922699 247.97397919 -181.33268738 246.78123474 C-181.34213986 242.97572742 -181.34413806 239.17026441 -181.34521484 235.36474609 C-181.34761798 233.37039693 -181.35002327 231.37604776 -181.35267526 229.38169891 C-181.36079176 223.10968732 -181.36326234 216.83769006 -181.36254883 210.56567383 C-181.36195097 204.1538433 -181.37245081 197.74209769 -181.38829249 191.33028859 C-181.40150153 185.78075612 -181.4067271 180.23125092 -181.40609342 174.68170291 C-181.405842 171.38747037 -181.40945488 168.09332863 -181.41927147 164.79910851 C-181.52259399 126.5243924 -177.83655914 90.30435567 -153.17724609 59.29052734 C-152.07896484 57.87126953 -152.07896484 57.87126953 -150.95849609 56.42333984 C-146.45665574 50.73437035 -141.82656513 45.82902522 -136.17724609 41.29052734 C-135.02095703 40.32179688 -135.02095703 40.32179688 -133.84130859 39.33349609 C-107.89147202 17.92692744 -76.04823321 7.16562499 -43.17724609 2.29052734 C-42.14821356 2.12132467 -41.11918102 1.952122 -40.05896568 1.77779198 C-26.74163556 -0.18696665 -13.43566596 -0.00592265 0 0 Z " fill="#000080" transform="translate(246.17724609375,873.70947265625)"/>
<path d="M0 0 C0.71411311 -0.00235223 1.42822621 -0.00470446 2.16397911 -0.00712797 C4.56923133 -0.01381226 6.97442945 -0.01335992 9.37969017 -0.01294994 C11.11668206 -0.01624892 12.85367317 -0.01997456 14.59066331 -0.02409142 C19.37378508 -0.03411565 24.1568943 -0.0378289 28.94002509 -0.04048073 C34.09493719 -0.04438251 39.24983935 -0.05396092 44.4047451 -0.0626936 C56.85855321 -0.08246126 69.31236213 -0.09252446 81.76618201 -0.10142139 C87.62950256 -0.10580367 93.49282221 -0.11117062 99.35614204 -0.11641026 C118.84459877 -0.13342261 138.33305493 -0.14791719 157.82151794 -0.155159 C162.87951343 -0.15706892 167.93750891 -0.15898925 172.99550438 -0.16094494 C174.2526587 -0.16142868 175.50981303 -0.16191242 176.80506293 -0.16241082 C197.17410596 -0.17071267 217.54309028 -0.1960522 237.91210766 -0.22852562 C258.8197732 -0.26158632 279.7274089 -0.27960685 300.63510072 -0.28280324 C312.37593498 -0.28496921 324.11668364 -0.29373079 335.85749245 -0.31926441 C345.85565758 -0.34095784 355.85371632 -0.34902847 365.85190232 -0.33929763 C370.95287336 -0.33474907 376.05362481 -0.33667165 381.15456581 -0.35605907 C385.82675598 -0.37366352 390.49856591 -0.37271503 395.17075996 -0.35716178 C396.85856412 -0.35478159 398.54639442 -0.35913057 400.23415859 -0.37099043 C410.62392897 -0.43946101 419.81628829 -0.0179375 428.38271141 6.57172108 C435.23577833 13.42478799 436.16381545 21.28513669 436.21626854 30.59261036 C436.21019585 32.19972134 436.21019585 32.19972134 436.20400047 33.8392992 C436.20925743 35.56278835 436.20925743 35.56278835 436.21462059 37.32109547 C436.2233916 41.10261626 436.21760499 44.88394853 436.21083641 48.66547108 C436.21218439 51.30288192 436.21412603 53.94029253 436.21663475 56.57770252 C436.22026481 62.09867853 436.21550057 67.61960089 436.2059536 73.14056873 C436.19507087 79.50718152 436.19859713 85.87366617 436.20960641 92.24027586 C436.21980479 98.38588523 436.21868869 104.53143817 436.21284294 110.6770525 C436.2115111 113.28289782 436.21313783 115.88874641 436.21780205 118.4945879 C436.22289477 122.13952704 436.21511815 125.78422194 436.20400047 129.42914295 C436.20804893 130.50055027 436.2120974 131.57195759 436.21626854 132.67583179 C436.16481506 141.80592963 435.01898472 149.94159479 428.94521141 157.13422108 C419.99707978 164.20073624 408.64182482 164.28887848 397.79591942 164.25447559 C396.80086435 164.25533002 395.80580928 164.25618444 394.78060102 164.25706476 C391.46110362 164.25870607 388.14165725 164.25322033 384.82216454 164.24774647 C382.4367784 164.24746428 380.05139217 164.24762295 377.66600609 164.24818897 C371.8704738 164.24844597 366.07495811 164.24411783 360.27942961 164.23775131 C353.5327875 164.23058862 346.78614771 164.22910491 340.03950232 164.22796314 C328.00904508 164.22577727 315.97859465 164.2191298 303.9481411 164.20966053 C292.26519873 164.20047438 280.58225822 164.19339943 268.89931297 164.18915272 C268.17856183 164.18888999 267.45781069 164.18862727 266.7152186 164.18835659 C263.09923845 164.1870515 259.48325828 164.1857878 255.8672781 164.18454468 C225.89324992 164.17418655 195.91923424 164.15575604 165.94521141 164.13422108 C165.94521141 185.91422108 165.94521141 207.69422108 165.94521141 230.13422108 C171.2494619 230.11327381 176.55371239 230.09232655 182.01869774 230.07074451 C199.54879274 230.00444957 217.07889269 229.96007164 234.60908031 229.92697239 C245.23705828 229.90637087 255.86491725 229.87829638 266.49281883 229.83246326 C275.75901502 229.79252168 285.02512501 229.76677075 294.2914049 229.7578671 C299.19521268 229.75266475 304.09877389 229.74048769 309.00250244 229.71130085 C313.62441666 229.68401598 318.24598431 229.67580236 322.86797142 229.68179035 C324.5581679 229.68069594 326.24837678 229.67282023 327.93850327 229.65739918 C339.96721 229.5530921 351.16255199 230.26395509 360.30434895 239.04186916 C365.82138272 246.07693543 366.53152375 254.81661281 366.44692039 263.42963123 C366.45502487 265.03432522 366.45502487 265.03432522 366.46329308 266.67143726 C366.47569834 270.17234285 366.4593456 273.67241292 366.44130516 277.17328358 C366.44146032 279.62464917 366.44295202 282.076015 366.44571495 284.52737904 C366.4470952 289.64969272 366.43460133 294.77172513 366.41176414 299.8939867 C366.38335106 306.44518953 366.38613027 312.9959265 366.39885426 319.54716396 C366.40582238 324.60363178 366.39800961 329.65999271 366.38559723 334.71644688 C366.3810959 337.13166741 366.38073434 339.54689947 366.38466263 341.96212101 C366.38758667 345.34085183 366.37101104 348.71894938 366.34926414 352.09759998 C366.35601662 353.58003948 366.35601662 353.58003948 366.3629055 355.09242725 C366.25785878 364.96057057 363.83729636 373.09825128 356.82021141 380.32172108 C347.53101905 386.17795105 337.04232227 385.54656512 326.47011375 385.47479725 C324.7149666 385.47394983 322.95981839 385.47442836 321.20467186 385.47612476 C316.4656513 385.47698166 311.7268609 385.45940568 306.98789358 385.43840289 C302.02581242 385.41958485 297.06372534 385.41788162 292.101614 385.41432667 C282.71666509 385.40502123 273.33182165 385.38042783 263.94691908 385.3502782 C253.25766723 385.31668738 242.56841021 385.30023642 231.87911868 385.28519189 C209.90107774 385.25387687 187.92318128 385.19888362 165.94521141 385.13422108 C165.94521141 409.88422108 165.94521141 434.63422108 165.94521141 460.13422108 C173.37520653 460.11851063 180.80520164 460.10280018 188.46034813 460.08661366 C212.25141413 460.03843261 236.0424773 460.00508035 259.83357888 459.98102509 C263.53094609 459.97727311 267.22831316 459.97339013 270.92568016 459.96942616 C271.6617389 459.96863922 272.39779765 459.96785229 273.1561612 459.96704151 C285.06400368 459.95399849 296.97180258 459.93035075 308.87961923 459.90276269 C321.10413894 459.87467774 333.32863588 459.85803829 345.55318654 459.85195559 C353.09238495 459.84784555 360.63146016 459.83487868 368.17062064 459.81047168 C373.95809196 459.79269342 379.74548488 459.79086325 385.53297806 459.79489803 C387.90246971 459.79407396 390.2719661 459.78812328 392.6414299 459.77660465 C395.88298672 459.76162191 399.12402149 459.76528885 402.36559105 459.77345753 C403.29752686 459.764719 404.22946268 459.75598048 405.18963897 459.74697715 C414.13674739 459.8076858 422.19493604 461.66973032 429.25380516 467.38812733 C434.24031835 472.53586727 436.06543611 479.10806426 436.07892418 486.1170702 C436.08318916 487.12070606 436.08745415 488.12434193 436.09184837 489.158391 C436.09139519 490.25353016 436.090942 491.34866932 436.09047508 492.47699451 C436.095513 494.21423786 436.095513 494.21423786 436.10065269 495.98657703 C436.11016548 499.82226091 436.11210609 503.65790113 436.11318016 507.49359608 C436.11558091 509.48545315 436.11798337 511.47731024 436.12064058 513.46916699 C436.12878048 519.73480023 436.13122532 526.0004191 436.13051414 532.26605701 C436.12991412 538.71664711 436.14045199 545.16715338 436.15625781 551.61772227 C436.16936355 557.16523211 436.17469674 562.71271465 436.17405874 568.26023984 C436.17380455 571.56923781 436.17753972 574.87814486 436.18723679 578.18713093 C436.19705139 581.8827808 436.19415244 585.57821607 436.18813133 589.27386951 C436.19375084 590.36091175 436.19937035 591.44795399 436.20516014 592.5679369 C436.16442057 602.42544551 434.71057647 610.56238866 427.94521141 618.13422108 C421.41874365 622.8338074 413.47852899 624.3826776 405.57092476 624.39148998 C404.85871484 624.39499606 404.14650491 624.39850213 403.41271287 624.40211445 C401.03192648 624.41140053 398.65138621 624.40651242 396.27058983 624.40164661 C394.54409469 624.40538428 392.81760124 624.40998627 391.09111047 624.41537726 C386.35088381 624.42760825 381.61072772 624.42734667 376.87048888 624.42498851 C371.75650492 624.42458037 366.64254359 624.43561924 361.52857018 624.44510365 C351.51075306 624.4617152 341.49295949 624.46721326 331.47512975 624.4683284 C323.33179429 624.46927881 315.1884666 624.47338873 307.04513359 624.47972965 C283.95578458 624.49734252 260.86645416 624.50656846 237.77709839 624.5050687 C235.91004334 624.50494884 235.91004334 624.50494884 234.00527 624.50482655 C232.75904634 624.50474478 231.51282268 624.50466302 230.22883466 624.50457878 C210.03201694 624.50376588 189.8352738 624.52290449 169.63847765 624.55110328 C148.89908002 624.57983109 128.15971876 624.59364363 107.42030072 624.59191573 C95.77729407 624.59125179 84.1343656 624.59674582 72.49137688 624.61827183 C62.57821376 624.63648224 52.66516426 624.64083206 42.75199166 624.62725298 C37.69543536 624.62072266 32.63909706 624.62060857 27.58256149 624.63795948 C22.94990639 624.65369222 18.3176421 624.65082442 13.68499652 624.63339122 C12.0127448 624.63032178 10.3404639 624.63395158 8.6682466 624.64511137 C-1.80606676 624.7103609 -10.68707082 623.87179455 -19.92978859 618.44672108 C-25.00825241 612.92015751 -28.17706968 606.45685726 -28.18243909 598.91598207 C-28.18545506 598.07505011 -28.18847103 597.23411815 -28.19157839 596.36770341 C-28.18980892 595.44705504 -28.18803945 594.52640668 -28.18621635 593.57785988 C-28.18826899 592.59330739 -28.19032162 591.60875489 -28.19243646 590.59436747 C-28.19812645 587.26916409 -28.19664674 583.94400186 -28.19523048 580.61879444 C-28.19781297 578.22112215 -28.20082581 575.8234503 -28.20423388 573.42577904 C-28.21147161 567.51048887 -28.21400718 561.59520708 -28.21456294 555.67991352 C-28.21547613 548.59636213 -28.22214235 541.51281912 -28.22890976 534.42927133 C-28.24497666 517.30764445 -28.25087379 500.18601845 -28.25565851 483.06438538 C-28.25799373 474.96618737 -28.26159629 466.86799006 -28.26535389 458.7697926 C-28.27818988 431.05382052 -28.28890913 403.33784884 -28.29235649 375.62187386 C-28.29257812 373.88172718 -28.29279991 372.14158051 -28.29302184 370.40143384 C-28.29324248 368.65706192 -28.29346297 366.91269001 -28.29368329 365.16831809 C-28.29412585 361.66875255 -28.29457296 358.16918701 -28.29502296 354.66962147 C-28.29513236 353.8019314 -28.29524175 352.93424133 -28.29535445 352.04025762 C-28.29898554 323.90183287 -28.31490728 295.76343387 -28.33821333 267.62501899 C-28.36280354 237.88184994 -28.37652895 208.13869561 -28.37772441 178.3955161 C-28.37789587 175.13110745 -28.3781113 171.8666988 -28.37835884 168.60229015 C-28.37841461 167.79848938 -28.37847038 166.99468861 -28.37852784 166.16653024 C-28.37967898 153.22523856 -28.39070633 140.28397329 -28.4052459 127.34269053 C-28.41960482 114.33740504 -28.4228513 101.33215344 -28.41480592 88.32686219 C-28.41034683 80.59910302 -28.41422139 72.87145316 -28.43004442 65.14370832 C-28.44093103 59.37531212 -28.43616219 53.60701392 -28.42527255 47.83862164 C-28.42330716 45.50346718 -28.42643261 43.16830184 -28.43511692 40.8331627 C-28.44616578 37.66184738 -28.43875143 34.49108769 -28.42672539 31.31978798 C-28.43432058 30.41084545 -28.44191577 29.50190291 -28.44974113 28.56541666 C-28.38098135 20.17986122 -26.62412135 12.89702013 -20.80088234 6.63812733 C-14.61660251 1.31162233 -7.95250946 0.01115582 0 0 Z " fill="#000080" transform="translate(672.0547885894775,873.8657789230347)"/>
<path d="M0 0 C2.45665182 -0.00600136 4.91330178 -0.01281052 7.36994934 -0.02035522 C13.28924384 -0.03603754 19.20850092 -0.04245535 25.12781198 -0.04357998 C29.94173908 -0.04453822 34.75565327 -0.04868654 39.56957626 -0.05498123 C53.26853522 -0.07252571 66.96746319 -0.0818287 80.66643347 -0.08032028 C81.76764998 -0.08020042 81.76764998 -0.08020042 82.89111328 -0.08007812 C83.9936966 -0.07995548 83.9936966 -0.07995548 85.11855434 -0.07983036 C97.06247698 -0.07901535 109.0062742 -0.09822494 120.95016052 -0.12635486 C133.26353899 -0.15512329 145.57685625 -0.16889356 157.89026916 -0.16716731 C164.78401834 -0.16650565 171.67763526 -0.17190136 178.57135391 -0.19352341 C185.04438447 -0.21370012 191.51720798 -0.21302174 197.99025536 -0.19849014 C200.35892204 -0.19640366 202.7276063 -0.20109326 205.0962429 -0.21321106 C232.0734083 -0.34225306 232.0734083 -0.34225306 239.8796711 6.14068031 C248.55073719 14.82433064 248.79911503 26.87894374 248.82885742 38.4296875 C248.83542862 39.54270233 248.84199982 40.65571716 248.84877014 41.80245972 C248.86844597 45.47817052 248.88015345 49.15384055 248.89013672 52.82958984 C248.89421225 54.08888683 248.89828777 55.34818382 248.9024868 56.64564133 C248.9211789 62.62572952 248.9357495 68.60579323 248.94409877 74.58590281 C248.95385545 81.45806992 248.98014352 88.3299136 249.02059966 95.20196688 C249.05456194 101.17883473 249.06625704 107.15554726 249.07030296 113.13251877 C249.07515749 115.66251187 249.08673886 118.19250181 249.10534096 120.72243118 C249.1298276 124.27354553 249.12874944 127.82382614 249.12182617 131.375 C249.14104126 132.92317413 249.14104126 132.92317413 249.16064453 134.50262451 C249.08874078 144.69063982 246.75620707 154.26218693 239.51513672 161.73583984 C233.31272243 166.9110199 225.81798021 167.43955261 218.03450012 167.43528748 C217.27522034 167.43881432 216.51594056 167.44234117 215.73365229 167.44597489 C213.19311548 167.45663628 210.65261622 167.46033857 208.11206055 167.46411133 C206.28833356 167.47041913 204.46460812 167.47718519 202.6408844 167.484375 C198.71277499 167.49903722 194.7846715 167.5107657 190.8565464 167.5203228 C184.63005949 167.53580928 178.40362289 167.55976296 172.1771698 167.58522034 C154.47060336 167.65631786 136.76400737 167.7159883 119.05737305 167.76733398 C109.27831234 167.79576643 99.49930102 167.83122273 89.72029227 167.87398773 C83.54762502 167.90056478 77.37501359 167.91859009 71.20230067 167.93002498 C67.33476431 167.93924425 63.4672948 167.95664946 59.5997982 167.97620392 C57.82548973 167.98358808 56.05116399 167.98775485 54.27684021 167.98819923 C45.41952047 167.99220361 36.66919139 168.23691977 27.85673523 169.18055725 C27.12657536 169.25733969 26.3964155 169.33412213 25.64412957 169.41323131 C13.9725161 170.80011432 5.519451 175.64809286 -2.34814453 184.29052734 C-9.34929676 193.49856451 -9.50320143 205.39033876 -9.4818573 216.4744873 C-9.48525563 217.79344254 -9.48525563 217.79344254 -9.48872262 219.13904333 C-9.49501129 222.06129646 -9.49423659 224.9835026 -9.4934082 227.90576172 C-9.49640282 230.01068684 -9.49980604 232.11561142 -9.50358582 234.22053528 C-9.51239718 239.920841 -9.51476267 245.62113169 -9.5154016 251.32144356 C-9.51611349 254.88533305 -9.5182504 258.44921875 -9.52089882 262.0131073 C-9.53014129 274.4530766 -9.5342349 286.8930352 -9.53344727 299.33300781 C-9.5328461 310.91929137 -9.54340844 322.50552843 -9.55919093 334.09180021 C-9.57227179 344.05042855 -9.57763096 354.00904169 -9.57699186 363.96767855 C-9.57673712 369.91077594 -9.57957521 375.85383196 -9.59016991 381.79692078 C-9.59986055 387.38493595 -9.59992339 392.97287024 -9.59265327 398.56088829 C-9.59160879 400.60828965 -9.59396224 402.65569608 -9.60001373 404.70308876 C-9.60775554 407.50434286 -9.60307443 410.30531907 -9.59538269 413.10656738 C-9.60309804 414.31286623 -9.60309804 414.31286623 -9.61096925 415.54353476 C-9.54933637 425.74643599 -7.11887269 438.14396562 -0.03173828 445.91552734 C13.81081387 457.22081356 29.76455608 457.58631014 46.68066406 457.54589844 C48.60353239 457.54865186 50.52639958 457.55233389 52.44926453 457.55686951 C56.57484857 457.56495211 60.70037852 457.56715739 64.8259697 457.56492233 C71.35787085 457.56207781 77.88966485 457.57648352 84.42153931 457.59390259 C102.9904826 457.64082141 121.55941799 457.66486696 140.12841797 457.67138672 C150.39567163 457.6751437 160.66280333 457.69322175 170.93000472 457.72648108 C177.4147024 457.74663186 183.8990842 457.74909662 190.38380027 457.7382009 C194.42808081 457.73558328 198.47217954 457.74964865 202.51641273 457.76828194 C204.38194044 457.77357831 206.24750216 457.7721512 208.11301613 457.76324654 C230.87964026 457.66339629 230.87964026 457.66339629 240.15185547 464.60302734 C248.07222856 473.11742841 248.95201464 482.62085491 248.94238281 493.84033203 C248.94910004 494.97314606 248.95581726 496.10596008 248.96273804 497.27310181 C248.98167221 501.00291378 248.98564003 504.73254535 248.98779297 508.46240234 C248.9942243 511.0678108 249.00095291 513.67321853 249.00796509 516.27862549 C249.02072674 521.73572963 249.02373305 527.19278529 249.02246094 532.64990234 C249.02126109 538.930194 249.04234105 545.21014114 249.07394826 551.49034572 C249.1034027 557.56227301 249.11043295 563.63403685 249.10924149 569.7060318 C249.1115922 572.27509212 249.1203856 574.84415535 249.13590622 577.41316986 C249.15563836 581.01678035 249.1496988 584.61951811 249.13769531 588.22314453 C249.14893433 589.27082001 249.16017334 590.31849548 249.17175293 591.3979187 C249.10116009 599.79439873 247.56123405 608.75912878 242.52685547 615.72802734 C236.71937743 620.90425777 229.48612289 624.41450825 221.62467766 624.41636848 C220.42978606 624.42028011 220.42978606 624.42028011 219.21075523 624.42427075 C218.34133265 624.42204003 217.47191007 624.41980931 216.57614136 624.41751099 C215.18358098 624.41985097 215.18358098 624.41985097 213.76288807 624.42223823 C210.64366717 624.42623499 207.52449473 624.42306343 204.40527344 624.41992188 C202.17103548 624.4212767 199.93679774 624.4230571 197.70256042 624.42523193 C191.62066145 624.42980232 185.53877938 624.42801678 179.45688009 624.42485285 C173.07486011 624.42232034 166.69284157 624.42466991 160.31082153 624.42623901 C148.88006531 624.4281778 137.44931841 624.42506322 126.01856376 624.41997968 C115.70817278 624.41553544 105.3977931 624.41626785 95.08740234 624.42089844 C83.08562848 624.42628623 71.08386315 624.42822109 59.08208764 624.42528617 C52.74100037 624.42373899 46.39992083 624.4234857 40.05883408 624.42682266 C34.0719534 624.42975242 28.08509357 624.42763393 22.0982151 624.42192841 C19.92250541 624.42062644 17.74679391 624.42095013 15.57108498 624.42319107 C3.93362479 624.43405373 -7.68055135 624.27106251 -19.31051636 623.83224487 C-20.38479263 623.79180719 -21.45906891 623.7513695 -22.56589901 623.70970643 C-30.92829614 623.36587267 -39.17481566 622.6565095 -47.47314453 621.54052734 C-48.13515869 621.45371704 -48.79717285 621.36690674 -49.47924805 621.27746582 C-96.14120288 615.13132647 -145.53715201 599.56876643 -175.40600586 560.76000977 C-190.38308277 540.64824588 -199.94719943 516.9236493 -204.34814453 492.29052734 C-204.47366235 491.61549541 -204.59918017 490.94046349 -204.72850156 490.24497604 C-207.62394926 474.28711246 -207.78330382 458.44527664 -207.74031854 442.27631855 C-207.73343257 438.43165385 -207.74405573 434.58702729 -207.7522583 430.74237061 C-207.76549768 423.2403974 -207.76276207 415.73851496 -207.75402038 408.23653841 C-207.74720525 402.13166347 -207.74634352 396.0268137 -207.74959183 389.92193604 C-207.75005153 389.04827963 -207.75051123 388.17462322 -207.75098485 387.27449238 C-207.75194417 385.49887895 -207.75291681 383.72326552 -207.75390263 381.9476521 C-207.76242782 365.35388843 -207.75266769 348.76017474 -207.73650153 332.16641927 C-207.72310098 317.97273759 -207.72542988 303.77912957 -207.73925781 289.58544922 C-207.75536462 273.04521666 -207.76160412 256.50502774 -207.75242102 239.96478844 C-207.75146552 238.19623185 -207.7505224 236.42767525 -207.74959183 234.65911865 C-207.749129 233.78928128 -207.74866617 232.91944391 -207.74818932 232.02324784 C-207.74561468 225.93591827 -207.74993722 219.84861673 -207.75703049 213.7612915 C-207.76550267 206.32825433 -207.76304661 198.89531202 -207.74718826 191.46228552 C-207.73938157 187.68033736 -207.73608138 183.89854652 -207.74613571 180.11660004 C-207.78559818 163.94204081 -207.34770756 148.22247198 -204.34814453 132.29052734 C-204.13925283 131.16928467 -203.93036114 130.04804199 -203.71513939 128.89282227 C-203.23702372 126.46385474 -202.69437874 124.06797019 -202.09814453 121.66552734 C-201.88834961 120.81055664 -201.67855469 119.95558594 -201.46240234 119.07470703 C-192.07502837 82.29733281 -170.89553227 51.38253668 -138.34814453 31.29052734 C-112.75758787 16.1438779 -84.33103259 7.82373186 -55.01220703 3.68505859 C-53.42975527 3.45070723 -51.8509595 3.17957204 -50.28965569 2.83114052 C-33.76621113 -0.20566313 -16.7318323 -0.00828706 0 0 Z " fill="#000080" transform="translate(1404.34814453125,873.70947265625)"/>
<path d="M0 0 C96.36 0 192.72 0 292 0 C292 2.64 292 5.28 292 8 C198.61 8 105.22 8 9 8 C9 79.94 9 151.88 9 226 C79.29 226 149.58 226 222 226 C222 228.97 222 231.94 222 235 C151.71 235 81.42 235 9 235 C9 308.92 9 382.84 9 459 C102.39 459 195.78 459 292 459 C292 461.97 292 464.94 292 468 C195.64 468 99.28 468 0 468 C0 313.56 0 159.12 0 0 Z " fill="#F7F7FB" transform="translate(738,952)"/>
<path d="M0 0 C2.0411529 0.00056499 4.0823062 0.00024584 6.12345886 -0.00088501 C11.63293924 -0.00145609 17.14233156 0.01025848 22.65179157 0.02426291 C28.42131917 0.03681119 34.19084904 0.03794399 39.96038818 0.04031372 C50.87166742 0.04651648 61.78290633 0.06291095 72.69416785 0.0830127 C85.12225724 0.10540925 97.5503486 0.11637456 109.97845316 0.12640357 C135.53090515 0.14727828 161.0833214 0.18243076 186.63574219 0.22705078 C186.63574219 2.86705078 186.63574219 5.50705078 186.63574219 8.22705078 C185.61035874 8.22943913 184.5849753 8.23182749 183.52851963 8.23428822 C158.5202665 8.29321521 133.51210869 8.36917908 108.50396061 8.46276569 C96.40995724 8.50763444 84.31598274 8.54706951 72.22192383 8.57348633 C61.6745287 8.59653884 51.12722558 8.63001732 40.57990354 8.67575234 C35.00083191 8.69958706 29.42185086 8.71837952 23.84272957 8.72466469 C18.5789353 8.73075992 13.31537252 8.750918 8.05166435 8.78132629 C6.13181549 8.79003596 4.21193628 8.793844 2.29206848 8.79205894 C-23.41977807 8.7757178 -46.9866647 13.2601144 -66.23925781 31.47705078 C-78.82209076 44.76407762 -84.51997403 59.86254555 -84.50952148 77.96948242 C-84.5128801 78.81608429 -84.51623871 79.66268616 -84.5196991 80.53494263 C-84.52915517 83.31904593 -84.53114987 86.10308869 -84.53222656 88.88720703 C-84.53544411 90.8390658 -84.53880856 92.79092432 -84.54231262 94.74278259 C-84.54829146 98.83218951 -84.55015393 102.92157535 -84.54956055 107.01098633 C-84.54945929 112.2165207 -84.5630796 117.42191757 -84.58033276 122.62741947 C-84.59152949 126.66066593 -84.59347737 130.69388003 -84.59295082 134.72714043 C-84.59412063 136.64421497 -84.59848536 138.56129064 -84.60628319 140.47834969 C-84.92195908 169.29145433 -84.92195908 169.29145433 -71.68847656 193.94189453 C-61.41424529 202.23608123 -49.16984087 206.2984697 -36.42675781 208.78955078 C-35.03589407 209.07625083 -33.64535623 209.36453591 -32.25512695 209.65429688 C-27.96378286 210.54110167 -23.66515823 211.38800407 -19.36425781 212.22705078 C-17.98893211 212.49674387 -16.61360659 212.76643787 -15.23828125 213.03613281 C-9.95459145 214.06930981 -4.66896802 215.09185271 0.61987305 216.09838867 C9.06580946 217.70772777 17.46492968 219.46415651 25.85668945 221.33300781 C33.9217456 223.11138706 42.02393955 224.67961067 50.13574219 226.22705078 C59.16164108 227.94886757 68.16611328 229.72950758 77.13574219 231.72705078 C85.91927194 233.68312258 94.73336773 235.41991594 103.57324219 237.10205078 C108.92994591 238.13076537 114.28371866 239.17427382 119.63574219 240.22705078 C120.6825415 240.43264618 120.6825415 240.43264618 121.75048828 240.64239502 C161.81722178 248.54373261 161.81722178 248.54373261 177.63574219 261.22705078 C178.34085937 261.76974609 179.04597656 262.31244141 179.77246094 262.87158203 C195.32967432 275.52478225 199.09071602 294.17499087 201.42287445 313.11509705 C201.74736005 316.33446037 201.77943561 319.53174885 201.796875 322.76611328 C201.8018399 323.4730986 201.80680481 324.18008392 201.81192017 324.90849304 C201.82639569 327.22302262 201.83332124 329.53748356 201.83886719 331.85205078 C201.84169456 332.65218597 201.84452194 333.45232117 201.847435 334.27670288 C201.86237268 338.51617759 201.87163477 342.75561879 201.87597656 346.99511719 C201.88143506 351.32724695 201.90542298 355.65905829 201.93394852 359.99108887 C201.95277428 363.36302522 201.95779108 366.73488814 201.95931244 370.10687256 C201.96229777 371.70133188 201.97018261 373.29579124 201.98349762 374.89019775 C202.18604054 401.02075449 195.30062381 423.25416781 176.63574219 442.22705078 C175.87519531 443.00048828 175.11464844 443.77392578 174.33105469 444.57080078 C152.19506613 465.76328819 122.82365342 468.72470883 93.64086914 468.56762695 C91.40164196 468.56677852 89.16241395 468.56726004 86.92318726 468.56895447 C80.90583417 468.56980739 74.88866428 468.55229675 68.87135339 468.5312326 C62.56001251 468.51234729 56.24866641 468.51070608 49.93730164 468.50715637 C39.36401297 468.49892233 28.79078358 468.48024508 18.2175293 468.45336914 C7.33732428 468.4257421 -3.5428626 468.40455112 -14.4230957 468.3918457 C-15.09615195 468.39105753 -15.7692082 468.39026936 -16.4626601 468.38945731 C-19.8399021 468.38554159 -23.21714424 468.38175061 -26.59438646 468.3780216 C-54.51772298 468.34702902 -82.44098623 468.29405838 -110.36425781 468.22705078 C-110.36425781 465.25705078 -110.36425781 462.28705078 -110.36425781 459.22705078 C-108.62656978 459.22346825 -108.62656978 459.22346825 -106.85377693 459.21981335 C-79.28442154 459.16231339 -51.71514075 459.08948425 -24.14587612 458.9980645 C-20.74422376 458.98679786 -17.342571 458.97565916 -13.94091797 458.96459961 C-13.26377939 458.96239593 -12.58664081 458.96019224 -11.88898288 458.95792178 C-0.95979214 458.92265807 9.96939854 458.8977325 20.89862488 458.87670376 C32.13333882 458.85485424 43.36797984 458.82149981 54.6026355 458.77834922 C60.90441271 458.7545029 67.20610953 458.73571796 73.50793076 458.72943687 C79.45213938 458.72334701 85.39614256 458.70320757 91.34027481 458.67277527 C93.50965188 458.66405718 95.67905586 458.66025936 97.84844971 458.66204262 C114.04487842 458.67114406 130.65233488 458.37107042 145.63574219 451.47705078 C146.42843506 451.12634521 147.22112793 450.77563965 148.0378418 450.41430664 C154.09521185 447.65552293 159.506597 444.49523231 164.63574219 440.22705078 C165.87324219 439.26412109 165.87324219 439.26412109 167.13574219 438.28173828 C181.63183856 426.3047806 189.20302663 408.58253703 191.63574219 390.22705078 C192.09545396 384.65005439 192.01297127 379.06018536 191.96386719 373.46923828 C191.96079626 371.90756413 191.95893031 370.3458872 191.95819092 368.78421021 C191.95363251 365.53864763 191.939382 362.29333936 191.91699219 359.04785156 C191.8886666 354.9253574 191.87776957 350.80306135 191.87331009 346.68047905 C191.86811298 342.69337431 191.85362818 338.70631696 191.83886719 334.71923828 C191.83698647 333.97935543 191.83510574 333.23947258 191.83316803 332.47716904 C191.76670026 312.25263568 191.66323904 288.82639473 177.07324219 272.97705078 C163.3545006 260.36211599 146.50272181 255.42875704 128.69824219 251.97705078 C127.6425 251.76870605 126.58675781 251.56036133 125.49902344 251.34570312 C119.78582674 250.22148819 114.06889037 249.11679838 108.35121155 248.01565552 C104.61249906 247.29560641 100.87406503 246.57411988 97.13574219 245.85205078 C96.37450043 245.70515808 95.61325867 245.55826538 94.82894897 245.40692139 C83.00414945 243.12134471 71.21682744 240.68894361 59.44244385 238.15734863 C49.25462515 235.96799018 39.04620383 233.9285357 28.8059082 231.99780273 C21.06216118 230.5281733 13.36804645 228.88534309 5.67504883 227.171875 C-1.86655732 225.51002291 -9.4398769 224.04596424 -17.0269165 222.61074829 C-70.53149725 212.47189232 -70.53149725 212.47189232 -83.13769531 195.89501953 C-89.53283266 186.46421572 -92.35713723 177.30620248 -93.4465332 166.07080078 C-93.53195153 165.19609634 -93.61736986 164.32139191 -93.70537663 163.42018127 C-94.56322405 154.00312782 -94.71091274 144.6149055 -94.73535156 135.16455078 C-94.74436261 133.31290637 -94.75348487 131.4612625 -94.76271057 129.60961914 C-94.7790182 125.76430518 -94.78686788 121.91907643 -94.78979492 118.07373047 C-94.79518624 113.20628634 -94.83297754 108.33966879 -94.87853909 103.47245789 C-94.90861812 99.65943631 -94.91552495 95.84660754 -94.91652107 92.03347778 C-94.92065569 90.24134501 -94.9328076 88.44920783 -94.95403862 86.65719604 C-95.19803972 64.30502695 -90.40099599 42.82488564 -74.56176758 26.30029297 C-53.68923628 5.41705598 -28.64818577 -0.11156636 0 0 Z " fill="#F7F7FB" transform="translate(253.3642578125,951.77294921875)"/>
<path d="M0 0 C1.71706638 0.00056625 3.43413324 0.00024339 5.15119934 -0.00088501 C9.7450131 -0.00145118 14.33871917 0.01018167 18.93250823 0.02426291 C23.75841055 0.03689515 28.58431624 0.03795049 33.41023254 0.04031372 C42.51861 0.04649221 51.62693857 0.06285306 60.73529464 0.0830127 C71.11763482 0.10548577 81.49997752 0.11639361 91.88233602 0.12640357 C113.21170491 0.14722315 134.54103002 0.18232731 155.87036133 0.22705078 C155.87036133 3.19705078 155.87036133 6.16705078 155.87036133 9.22705078 C155.01634987 9.23036093 154.16233841 9.23367107 153.28244781 9.23708153 C132.39427983 9.31870064 111.5061813 9.41091607 90.61811066 9.51457787 C80.51633683 9.56446107 70.41457015 9.61090426 60.31274414 9.64892578 C51.49648324 9.68211774 42.68028209 9.72209339 33.86408758 9.76984084 C29.20645819 9.79483901 24.54886704 9.81669497 19.89118958 9.83039474 C-41.23169278 8.55204278 -41.23169278 8.55204278 -94.17211914 35.02294922 C-117.58216334 58.7011404 -118.60166237 92.49594247 -118.50195312 123.70898438 C-118.50438683 126.40693149 -118.50799694 129.1048542 -118.51301575 131.80279541 C-118.52241312 138.3161641 -118.51598551 144.82942053 -118.50375281 151.34278075 C-118.49000749 158.94981118 -118.49178145 166.55681606 -118.49388614 174.16385575 C-118.49706245 187.74500216 -118.48548436 201.3260958 -118.46582031 214.90722656 C-118.44679942 228.04786788 -118.43974037 241.18844746 -118.4453125 254.32910156 C-118.45138487 268.69164571 -118.45116831 283.05416285 -118.43982667 297.41670477 C-118.43861955 298.95092559 -118.43741356 300.4851464 -118.43620872 302.01936722 C-118.43560519 302.77395623 -118.43500165 303.52854524 -118.43437982 304.30600058 C-118.43051959 309.59363543 -118.4308868 314.88126015 -118.43279457 320.16889572 C-118.43492738 326.61834329 -118.42961027 333.06773714 -118.41518102 339.51716964 C-118.40799171 342.80013393 -118.40489973 346.08300558 -118.40842438 349.36597824 C-118.42004932 362.13595645 -118.42149032 374.63168077 -116.12963867 387.22705078 C-115.99011434 388.03703711 -115.85059 388.84702343 -115.70683765 389.68155479 C-112.05372879 409.39864138 -103.72708006 428.09991474 -87.12963867 440.22705078 C-78.9125986 445.09747946 -70.29304039 448.59658641 -61.12963867 451.22705078 C-60.2350293 451.49130859 -59.34041992 451.75556641 -58.41870117 452.02783203 C-52.06027075 453.76437816 -45.63750556 454.85995345 -39.12963867 455.85205078 C-38.32333008 455.97523682 -37.51702148 456.09842285 -36.6862793 456.2253418 C-24.43055507 458.00586719 -12.24846476 458.38784405 0.11352539 458.43237305 C1.81970953 458.44197235 3.5258914 458.45198357 5.23207092 458.46237183 C9.82830648 458.48920488 14.42455207 458.51033016 19.02082157 458.53037381 C23.83744661 458.552368 28.65404148 458.57969044 33.47064209 458.60643005 C42.57567107 458.65617654 51.68071696 458.70118167 60.78577876 458.74445242 C71.15831012 458.79397984 81.53081118 458.84884005 91.90331316 458.90413201 C113.22563427 459.01767475 134.54798436 459.12457321 155.87036133 459.22705078 C155.87036133 462.19705078 155.87036133 465.16705078 155.87036133 468.22705078 C134.90025211 468.32139346 113.93017892 468.39146272 92.95989895 468.43429947 C83.21831007 468.454737 73.47685463 468.48248685 63.73535156 468.52880859 C55.22332767 468.569264 46.71140057 468.59461923 38.19928318 468.60340476 C33.71151869 468.60852274 29.22403058 468.62013262 24.73635674 468.64997101 C6.03226717 468.76912183 -12.45392938 468.33500532 -31.07470703 466.45263672 C-31.8679189 466.3747493 -32.66113077 466.29686189 -33.47837937 466.21661425 C-47.62294291 464.7920101 -61.66940994 462.24064314 -75.06713867 457.35205078 C-75.76967773 457.09866943 -76.4722168 456.84528809 -77.19604492 456.58422852 C-82.94987835 454.43516642 -88.10284807 451.77800428 -93.12963867 448.22705078 C-93.8953418 447.70498047 -94.66104492 447.18291016 -95.44995117 446.64501953 C-116.14495354 431.66745002 -122.87407563 406.8869571 -126.74414062 382.99853516 C-127.82286029 375.24323073 -128.27821991 367.73483847 -128.27680969 359.91088867 C-128.28048638 358.80194465 -128.28416307 357.69300062 -128.28795117 356.55045223 C-128.29892662 352.85019905 -128.30282147 349.14997401 -128.30664062 345.44970703 C-128.31291018 342.78946775 -128.31954551 340.12923137 -128.32655334 337.46899414 C-128.34624684 329.49628664 -128.3563768 321.52357802 -128.36528113 313.5508523 C-128.36879486 310.53977182 -128.37294115 307.52869237 -128.3771208 304.51761276 C-128.39558593 291.21430592 -128.41132984 277.91099906 -128.41901875 264.60768127 C-128.42092822 261.35710651 -128.42284861 258.10653176 -128.42480469 254.85595703 C-128.42528843 254.04817586 -128.42577217 253.24039469 -128.42627057 252.40813529 C-128.4345502 239.35670249 -128.45985378 226.30536194 -128.49238537 213.25396931 C-128.52561316 199.81206436 -128.54348177 186.37020603 -128.54666299 172.92825985 C-128.54881408 165.39841421 -128.5573541 157.86870293 -128.58312416 150.33889771 C-128.60504758 143.91870175 -128.61277733 137.49867279 -128.60315738 131.07844365 C-128.59867361 127.8144571 -128.60241806 124.55087837 -128.61991882 121.28692627 C-128.77383562 90.84312313 -126.27616626 55.1615534 -105.12963867 31.22705078 C-104.36651367 30.19580078 -103.60338867 29.16455078 -102.81713867 28.10205078 C-78.55221978 2.14423057 -33.12503019 -0.15670188 0 0 Z " fill="#F5F5FA" transform="translate(1418.129638671875,951.77294921875)"/>
<path d="M0 0 C11.88 0 23.76 0 36 0 C36 32.67 36 65.34 36 99 C41.61 99 47.22 99 53 99 C53 106.26 53 113.52 53 121 C48.63810168 121.47070845 44.36709392 121.86131581 39.99951172 122.09863281 C38.53259114 122.1973403 37.06753462 122.33244966 35.60791016 122.50878906 C26.52745837 123.57560095 19.28633883 121.54528969 11.69042969 116.39111328 C3.59594053 109.74445435 -0.16109262 103.20759742 -1.341259 92.89696884 C-2.40374444 79.55484187 -1.88562601 66.16342692 -1.37329102 52.8069458 C-1.16674128 46.84798601 -1.07694692 40.88730708 -0.9765625 34.92578125 C-0.76359968 23.27861504 -0.4126498 11.64180311 0 0 Z " fill="#0000FF" transform="translate(339,1532)"/>
<path d="M0 0 C0 10.23 0 20.46 0 31 C2.95066406 30.9071875 5.90132812 30.814375 8.94140625 30.71875 C11.81413907 30.65627648 14.68679491 30.60775002 17.55981445 30.56054688 C19.5494194 30.520428 21.53879012 30.46591626 23.52758789 30.39648438 C26.39528197 30.2989096 29.25984956 30.25396141 32.12890625 30.21875 C33.01147598 30.17745972 33.89404572 30.13616943 34.80335999 30.09362793 C38.66680869 30.09084992 41.04393971 30.18994419 44.06028748 32.74565125 C45.92382812 34.89135742 45.92382812 34.89135742 47.51403809 37.03141785 C49.59126048 39.78329385 52.26176273 41.65796258 54.9375 43.8125 C60.20395889 49.16759494 61.90886367 53.90505696 61.85888672 61.42431641 C60.74525112 71.36061706 53.63295193 78.18003013 46.359375 84.4375 C41.4837185 88.0703421 37.38913339 89.5538817 31.3125 89.1875 C28.899375 88.795625 26.48625 88.40375 24 88 C24 77.11 24 66.22 24 55 C21.24914062 55.20882813 18.49828125 55.41765625 15.6640625 55.6328125 C-16.54969792 57.56075318 -16.54969792 57.56075318 -26.32983398 49.47631836 C-31.99972598 43.50510679 -36.66820064 36.46738054 -37.3125 28.0625 C-36.93873539 18.68819213 -30.32896111 12.08903408 -23.9296875 5.88183594 C-15.69340875 -1.25322184 -10.56148817 -1.84099335 0 0 Z " fill="#FF0303" transform="translate(760,1565)"/>
<path d="M0 0 C1.24612061 -0.05051514 2.49224121 -0.10103027 3.77612305 -0.15307617 C11.5973717 -0.01087165 16.26475817 1.76096167 21.83261585 7.2988863 C27.7589375 13.98684614 26.87485104 21.84777954 26.57421875 30.29296875 C26.55366164 32.00355488 26.53802281 33.71420649 26.52705383 35.42488098 C26.48536675 39.89331901 26.37761435 44.35772375 26.25531006 48.82458496 C26.1221255 54.20207616 26.07233995 59.5809285 26.00832367 64.95960236 C25.9022129 73.10085958 25.69131939 81.23329692 25.5 89.375 C13.62 89.375 1.74 89.375 -10.5 89.375 C-10.5 67.595 -10.5 45.815 -10.5 23.375 C-15.45 23.375 -20.4 23.375 -25.5 23.375 C-26.28872445 17.85392883 -26.36694662 14.30312718 -24.0703125 9.1953125 C-17.71434423 0.72801913 -10.21945278 0.23274116 0 0 Z " fill="#0000FF" transform="translate(1410.5,1563.625)"/>
<path d="M0 0 C7.81040945 3.74556924 14.17395458 10.26923251 18 18 C20.65576023 28.99327111 19.80058276 40.47992445 19.23596191 51.68530273 C19.01642496 56.51221744 18.936283 61.34336242 18.83180237 66.1738739 C18.65911634 73.45778383 18.31405533 80.71469184 18 88 C5.79 88 -6.42 88 -19 88 C-19 66.22 -19 44.44 -19 22 C-23.95 22 -28.9 22 -34 22 C-34.96310661 16.04625005 -34.68976966 12.11916109 -31.23535156 6.99755859 C-23.35860297 -2.84985886 -11.50896637 -3.18112771 0 0 Z " fill="#0202FF" transform="translate(1476,1565)"/>
<path d="M0 0 C12.21 0 24.42 0 37 0 C37 29.04 37 58.08 37 88 C24.79 88 12.58 88 0 88 C0 58.96 0 29.92 0 0 Z " fill="#0202FF" transform="translate(1342,1565)"/>
<path d="M0 0 C11.11827866 -1.83146354 21.51940102 -2.56075214 31.55859375 3.31640625 C41.170119 10.39565401 46.7530851 18.11376445 48.73649597 29.88589478 C50.56783651 44.21436438 51.37805458 61.99358253 43.15234375 74.578125 C37.61865529 81.6294061 31.31979804 86.80463852 22.45361328 88.796875 C14.8118816 89.6832297 7.58529062 89.13150744 0 88 C0 81.4 0 74.8 0 68 C2.97 68 5.94 68 9 68 C9 52.82 9 37.64 9 22 C6.03 22 3.06 22 0 22 C0 14.74 0 7.48 0 0 Z " fill="#0303FF" transform="translate(453,1565)"/>
<path d="M0 0 C0 7.26 0 14.52 0 22 C-2.97 22 -5.94 22 -9 22 C-9 37.18 -9 52.36 -9 68 C-6.03 68 -3.06 68 0 68 C0 74.6 0 81.2 0 88 C-20.22558529 90.98410275 -20.22558529 90.98410275 -28.11474609 86.05322266 C-33.80542787 81.25073133 -38.67933811 75.74852811 -43.33374023 69.94946289 C-44.85984301 67.90785293 -44.85984301 67.90785293 -47 67 C-50.9320974 24.40686099 -50.9320974 24.40686099 -41.72360229 12.48623657 C-29.99340717 -0.97711315 -16.8586193 -2.77704378 0 0 Z " fill="#0404FF" transform="translate(447,1565)"/>
<path d="M0 0 C0 7.26 0 14.52 0 22 C-3.3 22 -6.6 22 -10 22 C-10 37.18 -10 52.36 -10 68 C-6.7 68 -3.4 68 0 68 C0 74.6 0 81.2 0 88 C-12.71600197 89.89686217 -24.49204757 90.62797848 -35.34960938 82.77441406 C-45.7137261 73.5809101 -48.64331328 64.06302342 -49.54272461 50.53466797 C-50.05817811 36.56514765 -49.7726188 22.13599398 -40.34936523 11.00805664 C-28.33014234 -1.15647091 -16.35833589 -2.69463437 0 0 Z " fill="#0202FF" transform="translate(1272,1565)"/>
<path d="M0 0 C12.40991925 -1.93680821 23.67676798 -2.44927357 34.27905273 5.17504883 C43.9930569 13.7251788 47.14539733 22.2085986 48.30722046 34.86132812 C49.23092368 49.74916192 49.31430661 65.54178782 39.70727539 77.7043457 C32.24813404 85.23647413 25.22889914 88.88076335 14.58178711 89.37548828 C9.62944667 89.28358698 4.89437751 88.76386239 0 88 C0 81.4 0 74.8 0 68 C2.97 68 5.94 68 9 68 C9 52.82 9 37.64 9 22 C6.03 22 3.06 22 0 22 C0 14.74 0 7.48 0 0 Z " fill="#0101FF" transform="translate(1278,1565)"/>
<path d="M0 0 C11.88 0 23.76 0 36 0 C36 29.04 36 58.08 36 88 C24.12 88 12.24 88 0 88 C0 58.96 0 29.92 0 0 Z " fill="#0000FF" transform="translate(285,1565)"/>
<path d="M0 0 C11.88 0 23.76 0 36 0 C42.55997981 17.31491147 48.83133717 34.70811725 54.9375 52.1875 C56.21080395 55.82692457 57.48487128 59.46607853 58.76014709 63.10481262 C59.54383265 65.3414199 60.32631718 67.5784485 61.10740662 69.81596375 C61.45860062 70.8192421 61.80979462 71.82252045 62.17163086 72.85620117 C62.47757675 73.7320134 62.78352264 74.60782562 63.09873962 75.51017761 C63.71024547 77.19952397 64.38505299 78.86701648 65.11427307 80.50898743 C66 83 66 83 66 88 C54.78 88 43.56 88 32 88 C28.68643677 79.29571451 25.38165553 70.58835049 22.08789062 61.87658691 C21.31087752 59.82201848 20.53349246 57.7675907 19.75585938 55.71325684 C17.1626366 48.86227459 14.57323027 42.00988443 11.9910841 35.15472031 C10.77974385 31.93910333 9.56667085 28.72416397 8.34951782 25.51074219 C6.96319716 21.85036859 5.58482024 18.18703153 4.20703125 14.5234375 C3.78252686 13.40585052 3.35802246 12.28826355 2.9206543 11.1368103 C2.53538574 10.10859161 2.15011719 9.08037292 1.75317383 8.02099609 C1.41328934 7.12029388 1.07340485 6.21959167 0.72322083 5.29159546 C0 3 0 3 0 0 Z " fill="#0202FF" transform="translate(507,1565)"/>
<path d="M0 0 C0 29.37 0 58.74 0 89 C-14.45990443 89 -18.8287872 88.57337311 -28.38024902 79.43164062 C-38.13677123 69.59296347 -39.65245592 57.92573767 -39.75 44.5 C-39.65245592 31.07426233 -38.13677123 19.40703653 -28.38024902 9.56835938 C-18.8287872 0.42662689 -14.45990443 0 0 0 Z " fill="#FF0303" transform="translate(871,1565)"/>
<path d="M0 0 C0 29.04 0 58.08 0 88 C-15.74075958 88 -20.10878708 87.60559654 -30.22192383 77.62670898 C-40.26061503 65.75951813 -40.30258937 50.5614236 -39.40760803 35.6421814 C-38.17896689 22.29656997 -33.67680782 14.59754297 -24.14916992 5.53540039 C-15.54865485 -1.36738485 -12.17436335 0 0 0 Z " fill="#0202FF" transform="translate(651,1565)"/>
<path d="M0 0 C0 29.04 0 58.08 0 88 C-15 88 -15 88 -20.76953125 83.66015625 C-22.49073218 81.83129821 -24.17182323 79.96392949 -25.8125 78.0625 C-27.52656481 76.19850217 -29.24136933 74.33518417 -30.95703125 72.47265625 C-31.68897705 71.64000244 -32.42092285 70.80734863 -33.17504883 69.94946289 C-34.8566168 67.92696896 -34.8566168 67.92696896 -37 67 C-40.85753346 25.21455016 -40.85753346 25.21455016 -32.62890625 14.11328125 C-30.85584343 11.98509397 -28.96723127 10.07008189 -26.9375 8.1875 C-26.01565918 7.31399902 -25.09381836 6.44049805 -24.14404297 5.54052734 C-15.56093472 -1.37595794 -12.1590604 0 0 0 Z " fill="#0202FF" transform="translate(1152,1565)"/>
<path d="M0 0 C0 29.04 0 58.08 0 88 C-15 88 -15 88 -20.76953125 83.66015625 C-22.49073218 81.83129821 -24.17182323 79.96392949 -25.8125 78.0625 C-27.52656481 76.19850217 -29.24136933 74.33518417 -30.95703125 72.47265625 C-31.68897705 71.64000244 -32.42092285 70.80734863 -33.17504883 69.94946289 C-34.8566168 67.92696896 -34.8566168 67.92696896 -37 67 C-40.85753346 25.21455016 -40.85753346 25.21455016 -32.62890625 14.11328125 C-30.85584343 11.98509397 -28.96723127 10.07008189 -26.9375 8.1875 C-26.01565918 7.31399902 -25.09381836 6.44049805 -24.14404297 5.54052734 C-15.56093472 -1.37595794 -12.1590604 0 0 0 Z " fill="#FF0202" transform="translate(981,1565)"/>
<path d="M0 0 C27.72251293 -3.44357438 27.72251293 -3.44357438 39.0234375 3.80859375 C47.1052232 10.3020222 53.87376502 17.64104212 55.16317749 28.235672 C55.85099219 36.70638766 54.83620594 44.40988439 54 53 C36.51 53 19.02 53 1 53 C1 48.05 1 43.1 1 38 C7.27 38 13.54 38 20 38 C20 32.72 20 27.44 20 22 C13.4 22 6.8 22 0 22 C0 14.74 0 7.48 0 0 Z " fill="#FF0303" transform="translate(876,1565)"/>
<path d="M0 0 C26.72506229 -3.44054768 26.72506229 -3.44054768 37.95703125 3.80859375 C46.03478446 10.30696916 52.87639052 17.63094082 54.16770935 28.235672 C54.8528753 36.7044349 53.83582802 44.41376665 53 53 C35.51 53 18.02 53 0 53 C0 48.05 0 43.1 0 38 C6.27 38 12.54 38 19 38 C19 32.72 19 27.44 19 22 C12.73 22 6.46 22 0 22 C0 14.74 0 7.48 0 0 Z " fill="#0101FF" transform="translate(657,1565)"/>
<path d="M0 0 C11.22 0 22.44 0 34 0 C31.75011019 10.12450416 31.75011019 10.12450416 30.13989258 14.56958008 C29.78224319 15.56544632 29.42459381 16.56131256 29.05610657 17.58735657 C28.67278671 18.63747421 28.28946686 19.68759186 27.89453125 20.76953125 C27.49223801 21.88575363 27.08994476 23.00197601 26.67546082 24.15202332 C25.3929538 27.70740012 24.10301353 31.2600225 22.8125 34.8125 C21.54531461 38.31549575 20.2796975 41.81905481 19.01437378 45.32272339 C18.18924759 47.60739101 17.36351009 49.89183795 16.53713989 52.17605591 C12.95366802 62.09278242 9.45619214 72.03828546 6 82 C5.34 82 4.68 82 4 82 C1.81908031 76.05027827 -0.33215992 70.0904189 -2.46362305 64.12280273 C-3.19129108 62.09629335 -3.92558312 60.07214924 -4.66674805 58.05053711 C-5.73439157 55.13480049 -6.77748286 52.21123052 -7.81640625 49.28515625 C-8.14967422 48.39103531 -8.4829422 47.49691437 -8.8263092 46.57569885 C-11.89814927 37.77892317 -10.70062949 31.28918244 -7.71484375 22.55859375 C-7.31128662 21.36290771 -6.90772949 20.16722168 -6.49194336 18.93530273 C-5.97897705 17.45102783 -5.46601074 15.96675293 -4.9375 14.4375 C-3.308125 9.673125 -1.67875 4.90875 0 0 Z " fill="#0303FF" transform="translate(573,1565)"/>
<path d="M0 0 C26.91959527 -3.46559159 26.91959527 -3.46559159 36.32574463 3.1428833 C39.05528075 5.31562551 41.51781558 7.67798682 43.9375 10.1875 C45.3289624 11.59539795 45.3289624 11.59539795 46.74853516 13.03173828 C53.81699578 21.09925532 53 22.46184616 53 35 C40.79 35 28.58 35 16 35 C16 30.71 16 26.42 16 22 C10.72 22 5.44 22 0 22 C0 14.74 0 7.48 0 0 Z " fill="#0202FF" transform="translate(1158,1565)"/>
<path d="M0 0 C26.91959527 -3.46559159 26.91959527 -3.46559159 36.32574463 3.1428833 C39.05528075 5.31562551 41.51781558 7.67798682 43.9375 10.1875 C45.3289624 11.59539795 45.3289624 11.59539795 46.74853516 13.03173828 C53.81699578 21.09925532 53 22.46184616 53 35 C40.79 35 28.58 35 16 35 C16 30.71 16 26.42 16 22 C10.72 22 5.44 22 0 22 C0 14.74 0 7.48 0 0 Z " fill="#FF0202" transform="translate(987,1565)"/>
<path d="M0 0 C12.21 0 24.42 0 37 0 C37 12.63321203 34.01090697 15.38617068 25.76098633 23.97729492 C18.22033781 31.13413727 11.1105782 32.63598941 0.88085938 32.40496826 C-4.793945 32.16572826 -10.35338284 31.66575835 -16 31 C-16 24.4 -16 17.8 -16 11 C-10.72 11 -5.44 11 0 11 C0 7.37 0 3.74 0 0 Z " fill="#0101FF" transform="translate(1174,1622)"/>
<path d="M0 0 C12.21 0 24.42 0 37 0 C37 12.63321203 34.01090697 15.38617068 25.76098633 23.97729492 C18.22033781 31.13413727 11.1105782 32.63598941 0.88085938 32.40496826 C-4.793945 32.16572826 -10.35338284 31.66575835 -16 31 C-16 24.4 -16 17.8 -16 11 C-10.72 11 -5.44 11 0 11 C0 7.37 0 3.74 0 0 Z " fill="#FF0101" transform="translate(1003,1622)"/>
<path d="M0 0 C12.21 0 24.42 0 37 0 C37 2.97 37 5.94 37 9 C42.28 9 47.56 9 53 9 C53 14.28 53 19.56 53 25 C47.6110053 25.27367932 42.22611642 25.47228109 36.83178711 25.60424805 C35.00099191 25.6592865 33.17067416 25.73415181 31.34155273 25.82983398 C16.12306319 26.60548336 16.12306319 26.60548336 10.84545898 22.61450195 C8.59091777 19.84472846 6.78879609 17.08343726 5 14 C4.00398514 12.91420014 2.9871896 11.8465013 1.9375 10.8125 C0 8 0 8 0 0 Z " fill="#FF0303" transform="translate(725,1628)"/>
<path d="M0 0 C5.47641113 -0.29955124 10.94794054 -0.51565289 16.43066406 -0.65917969 C18.28958263 -0.71906172 20.1479472 -0.80061099 22.00488281 -0.90527344 C39.04964001 -1.84099208 39.04964001 -1.84099208 45.7086792 3.80926514 C46.23278381 4.32080139 46.75688843 4.83233765 47.296875 5.359375 C48.03590057 6.07374725 48.03590057 6.07374725 48.78985596 6.80255127 C53.44691946 12.20339575 52 14.96845634 52 23 C41.11 23 30.22 23 19 23 C19 20.69 19 18.38 19 16 C12.73 16 6.46 16 0 16 C0 10.72 0 5.44 0 0 Z " fill="#FF0404" transform="translate(765,1565)"/>
<path d="M0 0 C16.17 0 32.34 0 49 0 C49 11.54327649 49 11.54327649 45.2578125 15.5859375 C37.63272378 22.45793104 28.49672496 21.08474705 18.875 20.625 C17.04178858 20.57476171 15.20844428 20.52914796 13.375 20.48828125 C8.91066874 20.3873696 4.46500321 20.19190558 0 20 C0 13.4 0 6.8 0 0 Z " fill="#FF0101" transform="translate(877,1633)"/>
<path d="M0 0 C16.17 0 32.34 0 49 0 C49 11.54327649 49 11.54327649 45.2578125 15.5859375 C37.63272378 22.45793104 28.49672496 21.08474705 18.875 20.625 C17.04178858 20.57476171 15.20844428 20.52914796 13.375 20.48828125 C8.91066874 20.3873696 4.46500321 20.19190558 0 20 C0 13.4 0 6.8 0 0 Z " fill="#0000FF" transform="translate(657,1633)"/>
<path d="M0 0 C11.88 0 23.76 0 36 0 C36 8.25 36 16.5 36 25 C24.12 25 12.24 25 0 25 C0 16.75 0 8.5 0 0 Z " fill="#0000FF" transform="translate(1059,1628)"/>
<path d="M0 0 C11.88 0 23.76 0 36 0 C36 7.59 36 15.18 36 23 C24.12 23 12.24 23 0 23 C0 15.41 0 7.82 0 0 Z " fill="#0000FF" transform="translate(285,1531)"/>
</svg>
